<svg id="logo-dat-desktop" xmlns="http://www.w3.org/2000/svg" viewBox="0 0 800 560"><defs><style>.cls-1{fill:#1c2128;}.cls-2{fill:#06c;}.cls-3{fill:#fff;}.cls-4{fill:#35b44f;}</style></defs><title>intro-6</title><path class="cls-1" d="M198.27,304.44h-3c0-19,16.49-64.89,54.61-84.55,14.81-7.64,31.15-10.3,48.57-7.92,20,2.74,41.54,12.2,63.94,28.13l-1.74,2.45c-22-15.65-43.06-24.93-62.61-27.6-16.8-2.3-32.54.27-46.78,7.62C214.27,241.64,198.27,286,198.27,304.44Z"/><path class="cls-1" d="M522,343.47c-21.17,0-44.43-8.27-65.73-24.1l1.79-2.41c31.66,23.53,67.62,30,93.87,16.76,24.2-12.16,37.52-39.12,37.52-75.9h3c0,38-13.91,65.89-39.17,78.58A69.23,69.23,0,0,1,522,343.47Z"/><rect class="cls-2" x="315.37" y="255.92" width="183.51" height="46.62"/><path class="cls-3" d="M369.45,270.81h4.18c4.8,0,7.66,2.59,7.66,7.78s-2.86,7.92-7.51,7.92h-4.32Zm4,13.44c3.17,0,5-1.8,5-5.67s-1.82-5.52-5-5.52h-1.2v11.19Z"/><path class="cls-3" d="M389.57,274.43c3,0,5.62,2.26,5.62,6.19s-2.66,6.17-5.62,6.17-5.59-2.26-5.59-6.17S386.65,274.43,389.57,274.43Zm0,10.11c1.73,0,2.78-1.56,2.78-3.91s-1.06-3.94-2.78-3.94-2.76,1.56-2.76,3.94S387.85,284.53,389.57,284.53Z"/><path class="cls-3" d="M396.94,274.72h2.78l1.42,6.12c.24,1.13.41,2.23.62,3.38h.1c.22-1.15.46-2.28.74-3.38l1.54-6.12h2.52l1.56,6.12c.29,1.13.53,2.23.79,3.38h.1c.22-1.15.41-2.26.62-3.38l1.42-6.12h2.59l-3,11.79h-3.29l-1.37-5.5c-.26-1.1-.46-2.18-.72-3.43h-.1c-.22,1.25-.43,2.35-.7,3.46l-1.34,5.47h-3.17Z"/><path class="cls-3" d="M416.42,274.72h2.28l.19,1.58h.1a5.47,5.47,0,0,1,3.86-1.87c2.52,0,3.62,1.7,3.62,4.68v7.39h-2.76v-7c0-1.94-.55-2.66-1.85-2.66-1,0-1.7.5-2.69,1.46v8.23h-2.76Z"/><path class="cls-3" d="M430.26,269.56H433v14.07c0,.67.31.91.6.91a1.63,1.63,0,0,0,.43,0l.36,2.06a3.76,3.76,0,0,1-1.46.24c-2,0-2.69-1.27-2.69-3.31Z"/><path class="cls-3" d="M442,274.43c3,0,5.62,2.26,5.62,6.19s-2.66,6.17-5.62,6.17-5.59-2.26-5.59-6.17S439,274.43,442,274.43Zm0,10.11c1.73,0,2.78-1.56,2.78-3.91s-1.06-3.94-2.78-3.94-2.76,1.56-2.76,3.94S440.23,284.53,442,284.53Z"/><path class="cls-3" d="M457,279c0-1.25-.55-2.3-2.14-2.3a6.56,6.56,0,0,0-3.31,1.15l-1-1.85a9.14,9.14,0,0,1,4.82-1.54c3,0,4.39,1.8,4.39,5.09v7h-2.26l-.22-1.3h-.07a5.74,5.74,0,0,1-3.65,1.58,3.31,3.31,0,0,1-3.5-3.46C450.07,280.81,452.18,279.49,457,279Zm-2.57,5.66a3.7,3.7,0,0,0,2.57-1.3v-2.64c-3.19.41-4.25,1.25-4.25,2.42S453.46,284.63,454.44,284.63Z"/><path class="cls-3" d="M467.9,274.43a4.35,4.35,0,0,1,3.1,1.3l-.1-1.9v-4.27h2.76V286.5h-2.28l-.19-1.27h-.1a4.91,4.91,0,0,1-3.34,1.56c-3,0-4.85-2.28-4.85-6.17S465.33,274.43,467.9,274.43Zm.53,10.08a3.18,3.18,0,0,0,2.47-1.32v-5.5a3.51,3.51,0,0,0-2.4-1c-1.51,0-2.74,1.42-2.74,3.89S466.73,284.51,468.43,284.51Z"/><path class="cls-4" d="M641.67,257.28l-80.45-46.19V118.69L641.67,72.5l80.45,46.19v92.39Zm-77.45-47.93,77.45,44.47,77.45-44.47V120.43L641.67,76l-77.45,44.47Z"/><path class="cls-3" d="M605.31,137.89h8.31c9.56,0,15.25,5.16,15.25,15.49s-5.69,15.77-15,15.77h-8.6Zm7.93,26.77c6.31,0,9.94-3.59,9.94-11.28s-3.63-11-9.94-11h-2.39v22.28Z"/><path class="cls-3" d="M649.93,160.7H639.47L637,169.16h-5.69l10.23-31.27h6.5l10.18,31.27h-5.88Zm-1.25-4.35-1.1-3.82c-1-3.3-1.91-6.88-2.82-10.33h-.19c-.86,3.49-1.77,7-2.77,10.33l-1.1,3.82Z"/><path class="cls-3" d="M666.6,142.59h-9.07V137.9h23.57v4.68h-9v26.58H666.6Z"/><path class="cls-3" d="M591.05,185.2h3.78c4.28,0,6.8,2.31,6.8,6.93s-2.55,7.06-6.69,7.06h-3.88Zm3.55,12c2.83,0,4.45-1.6,4.45-5s-1.62-4.92-4.45-4.92h-1v10Z"/><path class="cls-3" d="M607.54,185.2h8.4v2.09H610v3.57h5V193h-5v4.12h6.13v2.09h-8.61Z"/><path class="cls-3" d="M622.69,195.7a5.57,5.57,0,0,0,3.66,1.58c1.56,0,2.44-.7,2.44-1.8s-.9-1.51-2.18-2.05l-1.9-.83a4,4,0,0,1-2.83-3.72c0-2.22,2-3.94,4.68-3.94a6.19,6.19,0,0,1,4.32,1.78l-1.3,1.6a4.53,4.53,0,0,0-3-1.19c-1.33,0-2.18.62-2.18,1.65s1.07,1.51,2.22,2l1.88.76c1.67.7,2.83,1.75,2.83,3.78,0,2.27-1.88,4.15-5,4.15a7.19,7.19,0,0,1-5-2Z"/><path class="cls-3" d="M637,185.2h2.48v6.35h.06l5-6.35h2.73l-4.3,5.45,5,8.53h-2.73l-3.78-6.59-2,2.52v4.09H637Z"/><path class="cls-3" d="M656.1,187.3h-4V185.2h10.58v2.09h-4v11.89H656.1Z"/><path class="cls-3" d="M667,192.12c0-4.53,2.52-7.18,6.18-7.18s6.16,2.67,6.16,7.18-2.52,7.31-6.16,7.31S667,196.66,667,192.12Zm9.82,0c0-3.12-1.44-5-3.61-5s-3.63,1.9-3.63,5,1.44,5.15,3.63,5.15,3.59-2,3.59-5.15Z"/><path class="cls-3" d="M685.27,185.2H690c3,0,5.29,1.07,5.29,4.32,0,3.1-2.31,4.53-5.29,4.53h-2.22v5.13h-2.48Zm4.49,6.87c2.09,0,3.08-.83,3.08-2.55s-1.05-2.33-3.08-2.33h-2v4.9Z"/><path class="cls-4" d="M170.14,475.43a81.5,81.5,0,1,1,81.5-81.5A81.59,81.59,0,0,1,170.14,475.43Zm0-160a78.5,78.5,0,1,0,78.5,78.5A78.59,78.59,0,0,0,170.14,315.43Z"/><rect class="cls-4" x="168.64" y="313.93" width="3" height="160"/><rect class="cls-4" x="90.14" y="392.43" width="160" height="3"/><rect class="cls-4" x="100.02" y="432.43" width="140.24" height="3"/><rect class="cls-4" x="100.02" y="352.43" width="140.24" height="3"/><path class="cls-4" d="M170.14,475.43c-11.28,0-21.8-8.62-29.63-24.26-7.66-15.31-11.87-35.64-11.87-57.24s4.22-41.92,11.87-57.24c7.82-15.64,18.34-24.26,29.63-24.26v3c-21.23,0-38.5,35.21-38.5,78.5s17.27,78.5,38.5,78.5Z"/><path class="cls-4" d="M170.14,475.43v-3c21.23,0,38.5-35.21,38.5-78.5s-17.27-78.5-38.5-78.5v-3c11.28,0,21.8,8.62,29.63,24.26,7.66,15.31,11.87,35.64,11.87,57.24s-4.22,41.92-11.87,57.24C191.94,466.82,181.42,475.43,170.14,475.43Z"/><path class="cls-3" d="M346.39,280.22h-9.3a1.74,1.74,0,1,1,0-3.49h9.3a1.74,1.74,0,1,1,0,3.49Z"/><path class="cls-3" d="M340,283.56h-5.52a5.09,5.09,0,0,1,0-10.17H340v-2.91h-5.52a8,8,0,0,0,0,16H340Z"/><path class="cls-3" d="M349,270.48h-5.52v2.91H349a5.09,5.09,0,1,1,0,10.17h-5.52v2.91H349a8,8,0,1,0,0-16Z"/></svg>