<svg id="logo-dat-desktop" xmlns="http://www.w3.org/2000/svg" viewBox="0 0 800 560"><defs><style>.cls-1{fill:none;stroke:#35b44f;stroke-miterlimit:10;stroke-width:3px;}.cls-2{fill:#fff;}</style></defs><title>intro-1</title><polygon class="cls-1" points="504.5 335 400 395 295.5 335 295.5 215 400 155 504.5 215 504.5 335"/><path class="cls-2" d="M351.87,239.27h11c12.66,0,20.19,6.83,20.19,20.5s-7.53,20.88-19.81,20.88H351.87Zm10.5,35.44c8.35,0,13.16-4.75,13.16-14.93s-4.81-14.56-13.16-14.56h-3.16v29.49Z"/><path class="cls-2" d="M410.93,269.46H397.08l-3.23,11.2h-7.53l13.54-41.39h8.61l13.48,41.39h-7.78Zm-1.65-5.76-1.46-5.06c-1.27-4.37-2.53-9.11-3.73-13.67h-.25c-1.14,4.62-2.34,9.3-3.67,13.67l-1.46,5.06Z"/><path class="cls-2" d="M433,245.48H421v-6.2h31.2v6.2H440.3v35.18H433Z"/><path class="cls-2" d="M333,301.88h5c5.66,0,9,3.06,9,9.17s-3.37,9.34-8.86,9.34H333Zm4.7,15.85c3.74,0,5.89-2.12,5.89-6.68s-2.15-6.51-5.89-6.51h-1.37v13.19Z"/><path class="cls-2" d="M354.82,301.88h11.12v2.77H358.1v4.73h6.65v2.77H358.1v5.46h8.12v2.77h-11.4Z"/><path class="cls-2" d="M374.88,315.78a7.37,7.37,0,0,0,4.84,2.09c2.07,0,3.23-.93,3.23-2.38s-1.19-2-2.89-2.72l-2.52-1.1c-1.84-.76-3.74-2.21-3.74-4.93,0-2.94,2.61-5.21,6.2-5.21a8.19,8.19,0,0,1,5.72,2.35L384,306a6,6,0,0,0-4-1.58c-1.76,0-2.89.82-2.89,2.18s1.41,2,2.94,2.6l2.49,1c2.21.93,3.74,2.32,3.74,5,0,3-2.49,5.49-6.65,5.49A9.52,9.52,0,0,1,373,318Z"/><path class="cls-2" d="M393.8,301.88h3.28v8.41h.08l6.6-8.41h3.62l-5.69,7.22,6.65,11.29h-3.62l-5-8.72L397.08,315v5.41H393.8Z"/><path class="cls-2" d="M419.1,304.66h-5.35v-2.77h14v2.77h-5.32V320.4H419.1Z"/><path class="cls-2" d="M433.52,311.05c0-6,3.34-9.51,8.18-9.51s8.15,3.54,8.15,9.51-3.34,9.68-8.15,9.68S433.52,317.05,433.52,311.05Zm13,0c0-4.13-1.9-6.65-4.78-6.65s-4.81,2.52-4.81,6.65,1.9,6.82,4.81,6.82,4.75-2.66,4.75-6.82Z"/><path class="cls-2" d="M457.71,301.88h6.23c4,0,7,1.42,7,5.72,0,4.1-3.06,6-7,6H461v6.79h-3.28Zm5.94,9.09c2.77,0,4.08-1.1,4.08-3.37s-1.39-3.09-4.08-3.09H461V311Z"/></svg>