<svg id="logo-dat-desktop" xmlns="http://www.w3.org/2000/svg" viewBox="0 0 800 560"><defs><style>.cls-1{fill:#fff;}.cls-2{fill:#1c2128;}.cls-3{fill:#35b44f;}.cls-4{fill:#06c;}</style></defs><title>intro-5</title><path class="cls-1" d="M362,273.42a6.14,6.14,0,0,1,4.46,2l-1.54,1.73a4,4,0,0,0-2.9-1.3c-2.57,0-4.42,2.16-4.42,5.69s1.7,5.74,4.32,5.74a4.25,4.25,0,0,0,3.31-1.56l1.54,1.7a6.27,6.27,0,0,1-4.9,2.28c-4,0-7.13-2.88-7.13-8.09S357.92,273.42,362,273.42Z"/><path class="cls-1" d="M374.23,277.34c3,0,5.62,2.26,5.62,6.19s-2.66,6.17-5.62,6.17-5.59-2.26-5.59-6.17S371.3,277.34,374.23,277.34Zm0,10.11c1.73,0,2.78-1.56,2.78-3.91s-1.06-3.94-2.78-3.94-2.76,1.56-2.76,3.94S372.5,287.44,374.23,287.44Z"/><path class="cls-1" d="M385.8,290.37v3.7H383V277.62h2.28l.19,1.25h.1a5.75,5.75,0,0,1,3.55-1.54c2.93,0,4.63,2.35,4.63,6,0,4-2.42,6.36-5,6.36a4.77,4.77,0,0,1-3-1.3Zm2.38-3c1.56,0,2.76-1.39,2.76-4.06,0-2.35-.77-3.74-2.54-3.74a3.76,3.76,0,0,0-2.59,1.32v5.5A3.72,3.72,0,0,0,388.17,287.42Z"/><path class="cls-1" d="M397.32,292a2.47,2.47,0,0,0,2.35-2l.22-.74-4.63-11.64h2.81l2,5.78c.34,1,.67,2.21,1,3.31h.1c.29-1.08.6-2.26.89-3.31l1.78-5.78h2.66l-4.27,12.31c-1,2.66-2.21,4.32-4.78,4.32A4.6,4.6,0,0,1,396,294l.5-2.16A2.9,2.9,0,0,0,397.32,292Z"/><path class="cls-1" d="M414.93,273.71h4.18c4.8,0,7.66,2.59,7.66,7.78s-2.86,7.92-7.51,7.92h-4.32Zm4,13.44c3.17,0,5-1.8,5-5.67s-1.82-5.52-5-5.52h-1.2v11.19Z"/><path class="cls-1" d="M436.35,281.87c0-1.25-.55-2.3-2.14-2.3a6.55,6.55,0,0,0-3.31,1.15l-1-1.85a9.13,9.13,0,0,1,4.82-1.54c3,0,4.39,1.8,4.39,5.09v7h-2.26l-.22-1.3h-.07a5.74,5.74,0,0,1-3.65,1.58,3.31,3.31,0,0,1-3.5-3.46C429.41,283.72,431.53,282.4,436.35,281.87Zm-2.57,5.67a3.7,3.7,0,0,0,2.57-1.3V283.6c-3.19.41-4.25,1.25-4.25,2.42S432.8,287.54,433.78,287.54Z"/><path class="cls-1" d="M443.17,279.81h-1.68v-2.06l1.82-.12.34-3.22H446v3.22h3v2.18h-3v5.62c0,1.39.53,2.06,1.66,2.06a3.36,3.36,0,0,0,1.22-.26l.48,2a7.53,7.53,0,0,1-2.4.43c-2.74,0-3.74-1.73-3.74-4.27Z"/><path class="cls-1" d="M457.76,273.71h2.78v13.34H467v2.35h-9.29Z"/><path class="cls-1" d="M469.53,274a1.71,1.71,0,1,1,1.7,1.56A1.58,1.58,0,0,1,469.53,274Zm.31,3.62h2.76v11.79h-2.76Z"/><path class="cls-1" d="M476.5,277.62h2.28l.19,1.58h.1a5.47,5.47,0,0,1,3.86-1.87c2.52,0,3.62,1.7,3.62,4.68v7.39h-2.76v-7c0-1.94-.55-2.66-1.85-2.66-1,0-1.7.5-2.69,1.46v8.23H476.5Z"/><path class="cls-1" d="M490.36,272.46h2.71V283h.07l4.37-5.42h3l-4,4.8,4.44,7h-3l-3-5.11-1.85,2.11v3h-2.71Z"/><path class="cls-1" d="M337.53,284.19h0a1.11,1.11,0,0,0-1.11,1.11v1.23L327,291.94l-9.36-5.4v-10.8l9.37-5.41,1.07.62a1.11,1.11,0,0,0,1.11-1.92l-1.62-.94a1.11,1.11,0,0,0-1.11,0l-10.48,6a1.11,1.11,0,0,0-.55,1v12.09a1.11,1.11,0,0,0,.56,1l10.47,6a1.11,1.11,0,0,0,1.11,0l10.48-6a1.11,1.11,0,0,0,.55-1V285.3A1.11,1.11,0,0,0,337.53,284.19Z"/><path class="cls-1" d="M338.55,274.82h-2.89v-2.89a1.78,1.78,0,0,0-3.55,0v2.89h-2.89a1.78,1.78,0,1,0,0,3.55h2.89v2.89a1.78,1.78,0,1,0,3.55,0v-2.89h2.89a1.78,1.78,0,0,0,0-3.55Z"/><path class="cls-2" d="M200.57,304.44h-3c0-19,16.49-64.89,54.61-84.55,14.81-7.64,31.15-10.31,48.57-7.92,20,2.74,41.54,12.2,63.94,28.13L363,242.54c-22-15.65-43.06-24.93-62.61-27.6-16.8-2.29-32.54.27-46.78,7.62C216.57,241.64,200.57,286,200.57,304.44Z"/><path class="cls-2" d="M524.35,343.47c-21.17,0-44.43-8.27-65.72-24.1l1.79-2.41c31.65,23.53,67.62,30,93.87,16.76,24.2-12.16,37.52-39.12,37.52-75.91h3c0,38-13.91,65.89-39.17,78.59A69.22,69.22,0,0,1,524.35,343.47Z"/><path class="cls-3" d="M158.31,471.69,82.17,428V340.53l76.14-43.72,76.14,43.72V428ZM85.17,426.24l73.14,42,73.14-42v-84l-73.14-42-73.14,42Z"/><path class="cls-4" d="M746.24,166l-32.47-18.77a3,3,0,0,0-3,0L678.26,166a3,3,0,0,0-1.52,2.64v37.54a3,3,0,0,0,1.52,2.64l32.47,18.77a3,3,0,0,0,3,0l32.47-18.77a3,3,0,0,0,1.52-2.64V168.61A3,3,0,0,0,746.24,166Zm-52.79,14.17v-5.82a3,3,0,1,1,6.09,0v5.82a3,3,0,1,1-6.09,0Zm36,15.85a24.06,24.06,0,0,1-34,0,3,3,0,1,1,4.3-4.3,18,18,0,0,0,25.43,0,3,3,0,0,1,4.3,4.3Zm1.92-15.85a3,3,0,1,1-6.09,0v-5.82a3,3,0,1,1,6.09,0Z"/><path class="cls-3" d="M708.91,68.16l-41-23.68a3.84,3.84,0,0,0-3.84,0l-41,23.68a3.84,3.84,0,0,0-1.92,3.33v47.37a3.84,3.84,0,0,0,1.92,3.33l41,23.68a3.84,3.84,0,0,0,3.84,0l41-23.68a3.84,3.84,0,0,0,1.92-3.33V71.49A3.84,3.84,0,0,0,708.91,68.16ZM642.31,86V78.7a3.84,3.84,0,0,1,7.68,0V86a3.84,3.84,0,0,1-7.68,0Zm45.37,20a30.36,30.36,0,0,1-43,0,3.84,3.84,0,1,1,5.43-5.43,22.68,22.68,0,0,0,32.09,0,3.84,3.84,0,0,1,5.43,5.43Zm2.42-20a3.84,3.84,0,0,1-7.68,0V78.7a3.84,3.84,0,0,1,7.68,0Z"/><path class="cls-1" d="M652,160.81l-45.94-26.56a4.31,4.31,0,0,0-4.31,0l-45.94,26.56a4.31,4.31,0,0,0-2.15,3.73v53.12a4.31,4.31,0,0,0,2.15,3.73L601.74,248a4.31,4.31,0,0,0,4.31,0L652,221.39a4.31,4.31,0,0,0,2.15-3.73V164.54A4.31,4.31,0,0,0,652,160.81Zm-74.7,20.05v-8.24a4.31,4.31,0,0,1,8.61,0v8.24a4.31,4.31,0,0,1-8.61,0Zm50.89,22.43a34,34,0,0,1-48.17,0,4.31,4.31,0,1,1,6.09-6.09,25.43,25.43,0,0,0,36,0,4.31,4.31,0,1,1,6.09,6.09Zm2.71-22.43a4.31,4.31,0,0,1-8.61,0v-8.24a4.31,4.31,0,0,1,8.61,0Z"/></svg>