<svg id="logo-dat-desktop" xmlns="http://www.w3.org/2000/svg" viewBox="0 0 800 560"><defs><style>.cls-1{fill:#35b44f;}.cls-2{fill:#06c;}.cls-3{fill:#fff;}.cls-4{fill:#1c2128;}</style></defs><title>intro-4</title><path class="cls-1" d="M637.17,268,561,224.24V136.8l76.14-43.72,76.14,43.72v87.44ZM564,222.51l73.14,42,73.14-42v-84l-73.14-42-73.14,42Z"/><polygon class="cls-1" points="236.54 426.45 88.37 426.45 88.37 300.56 150.83 300.56 150.83 320.63 238.04 320.63 238.04 330.25 235.04 330.25 235.04 323.63 147.83 323.63 147.83 303.56 91.37 303.56 91.37 423.45 236.54 423.45 236.54 426.45"/><path class="cls-1" d="M237.84,426.69H88.14L102.43,329H252.13Zm-146.23-3H235.25L248.66,332H105Z"/><rect class="cls-2" x="307.97" y="257.82" width="208.31" height="46.62"/><path class="cls-3" d="M364.71,285.5a6.25,6.25,0,0,0,4.1,1.78c1.75,0,2.74-.79,2.74-2s-1-1.7-2.45-2.3L367,282a4.49,4.49,0,0,1-3.17-4.18c0-2.5,2.21-4.42,5.26-4.42a6.94,6.94,0,0,1,4.85,2l-1.44,1.78a5.07,5.07,0,0,0-3.41-1.34c-1.49,0-2.45.7-2.45,1.85s1.2,1.68,2.5,2.21l2.11.89c1.87.79,3.17,2,3.17,4.25,0,2.54-2.11,4.66-5.64,4.66a8.07,8.07,0,0,1-5.64-2.3Z"/><path class="cls-3" d="M377.45,272.46h2.76v4.37l-.1,2.28a5.4,5.4,0,0,1,3.77-1.78c2.52,0,3.62,1.7,3.62,4.68v7.39h-2.76v-7c0-1.94-.55-2.66-1.85-2.66-1,0-1.7.5-2.69,1.46v8.23h-2.76Z"/><path class="cls-3" d="M397.6,281.87c0-1.25-.55-2.3-2.14-2.3a6.55,6.55,0,0,0-3.31,1.15l-1-1.85a9.13,9.13,0,0,1,4.82-1.54c3,0,4.39,1.8,4.39,5.09v7h-2.26l-.22-1.3h-.07a5.74,5.74,0,0,1-3.65,1.58,3.31,3.31,0,0,1-3.5-3.46C390.67,283.72,392.78,282.4,397.6,281.87ZM395,287.54a3.7,3.7,0,0,0,2.57-1.3V283.6c-3.19.41-4.25,1.25-4.25,2.42S394,287.54,395,287.54Z"/><path class="cls-3" d="M404.14,277.62h2.28l.19,2.09h.1a4,4,0,0,1,3.34-2.38,3,3,0,0,1,1.34.24l-.48,2.4a3.85,3.85,0,0,0-1.22-.19c-.94,0-2.06.65-2.78,2.42v7.2h-2.76Z"/><path class="cls-3" d="M418.18,277.34c3.19,0,4.87,2.3,4.87,5.59a5.92,5.92,0,0,1-.12,1.3h-7.49a3.38,3.38,0,0,0,3.48,3.34,4.92,4.92,0,0,0,2.74-.86l.94,1.73a7.44,7.44,0,0,1-4,1.27c-3.26,0-5.81-2.28-5.81-6.17S415.42,277.34,418.18,277.34Zm2.47,5.14c0-1.87-.79-3-2.4-3-1.39,0-2.59,1-2.83,3Z"/><path class="cls-3" d="M432,273.71h9.48v2.35h-6.7v4.44h5.69v2.35h-5.69v6.55H432Z"/><path class="cls-3" d="M449,277.34c3,0,5.62,2.26,5.62,6.19s-2.66,6.17-5.62,6.17-5.59-2.26-5.59-6.17S446.06,277.34,449,277.34Zm0,10.11c1.73,0,2.78-1.56,2.78-3.91s-1.06-3.94-2.78-3.94-2.76,1.56-2.76,3.94S447.26,287.44,449,287.44Z"/><path class="cls-3" d="M457.79,272.46h2.76v14.07c0,.67.31.91.6.91a1.63,1.63,0,0,0,.43,0l.36,2.06a3.76,3.76,0,0,1-1.46.24c-2,0-2.69-1.27-2.69-3.31Z"/><path class="cls-3" d="M468.92,277.34a4.35,4.35,0,0,1,3.1,1.3l-.1-1.9v-4.27h2.76v16.95H472.4l-.19-1.27h-.1a4.91,4.91,0,0,1-3.34,1.56c-3,0-4.85-2.28-4.85-6.17S466.35,277.34,468.92,277.34Zm.53,10.08a3.18,3.18,0,0,0,2.47-1.32v-5.5a3.51,3.51,0,0,0-2.4-1c-1.51,0-2.74,1.42-2.74,3.89S467.74,287.42,469.44,287.42Z"/><path class="cls-3" d="M483.29,277.34c3.19,0,4.87,2.3,4.87,5.59a5.92,5.92,0,0,1-.12,1.3h-7.49a3.38,3.38,0,0,0,3.48,3.34,4.92,4.92,0,0,0,2.74-.86l.94,1.73a7.44,7.44,0,0,1-4,1.27c-3.26,0-5.81-2.28-5.81-6.17S480.53,277.34,483.29,277.34Zm2.47,5.14c0-1.87-.79-3-2.4-3-1.39,0-2.59,1-2.83,3Z"/><path class="cls-3" d="M491.35,277.62h2.28l.19,2.09h.1a4,4,0,0,1,3.34-2.38,3,3,0,0,1,1.34.24l-.48,2.4a3.85,3.85,0,0,0-1.22-.19c-.94,0-2.06.65-2.78,2.42v7.2h-2.76Z"/><path class="cls-3" d="M346.17,284.19h0a1.11,1.11,0,0,0-1.11,1.11v1.23l-9.37,5.41-9.36-5.4v-10.8l9.37-5.41,1.07.62a1.11,1.11,0,1,0,1.11-1.92l-1.62-.94a1.11,1.11,0,0,0-1.11,0l-10.48,6a1.11,1.11,0,0,0-.55,1v12.09a1.11,1.11,0,0,0,.56,1l10.47,6a1.11,1.11,0,0,0,1.11,0l10.48-6a1.11,1.11,0,0,0,.55-1V285.3A1.11,1.11,0,0,0,346.17,284.19Z"/><path class="cls-3" d="M347.19,274.82h-2.89v-2.89a1.78,1.78,0,0,0-3.55,0v2.89h-2.89a1.78,1.78,0,1,0,0,3.55h2.89v2.89a1.78,1.78,0,1,0,3.55,0v-2.89h2.89a1.78,1.78,0,1,0,0-3.55Z"/><path class="cls-4" d="M199.21,304.44h-3c0-19,16.49-64.88,54.61-84.55,14.81-7.64,31.15-10.3,48.57-7.92,20,2.74,41.54,12.2,63.94,28.13l-1.74,2.45c-22-15.65-43.06-24.93-62.61-27.6-16.8-2.3-32.54.27-46.78,7.62C215.21,241.64,199.21,286,199.21,304.44Z"/><path class="cls-4" d="M523,343.47c-21.17,0-44.43-8.27-65.73-24.1l1.79-2.41c31.66,23.53,67.62,30,93.87,16.76,24.2-12.16,37.52-39.12,37.52-75.91h3c0,38-13.91,65.89-39.17,78.59A69.22,69.22,0,0,1,523,343.47Z"/></svg>