<svg id="logo-dat-desktop" xmlns="http://www.w3.org/2000/svg" viewBox="0 0 800 560"><defs><style>.cls-1{fill:#fff;}.cls-2{fill:#1c2128;}.cls-3{fill:#35b44f;}.cls-4{fill:#06c;}</style></defs><title>intro-5</title><path class="cls-1" d="M328.27,284.73h-1.85V282.9h2l.38-3.1H326.9V278h2.18l.53-4.18h1.66l-.5,4.18h2.81l.55-4.18h1.63l-.5,4.18h1.92v1.82H335l-.38,3.1h2v1.82h-2.26l-.55,4.68h-1.68l.55-4.68h-2.81l-.58,4.68h-1.68Zm4.7-1.82.38-3.1h-2.83l-.38,3.1Z"/><path class="cls-1" d="M339.41,287.15h3.41v-10H340v-1.73a10.25,10.25,0,0,0,3.53-1.25h2.06v13h3v2.26h-9.19Z"/><path class="cls-1" d="M351.35,287.8c4.25-4.1,6.91-6.79,6.91-9.12a2.37,2.37,0,0,0-2.52-2.64,4.22,4.22,0,0,0-3,1.7l-1.54-1.54a6.25,6.25,0,0,1,4.87-2.35,4.46,4.46,0,0,1,4.83,4.68c0,2.71-2.52,5.5-5.54,8.69.79-.07,1.8-.17,2.54-.17h3.75v2.35H351.35Z"/><path class="cls-1" d="M365.45,285.76a5,5,0,0,0,3.62,1.68c1.66,0,2.81-.86,2.81-2.3s-1-2.59-4.49-2.59v-2c3,0,4-1,4-2.45a2,2,0,0,0-2.26-2,4.46,4.46,0,0,0-3.07,1.44l-1.42-1.7a6.74,6.74,0,0,1,4.58-1.92c2.93,0,4.95,1.44,4.95,4a3.67,3.67,0,0,1-2.67,3.5v.1a3.88,3.88,0,0,1,3.17,3.79c0,2.79-2.42,4.42-5.35,4.42a6.64,6.64,0,0,1-5.18-2.16Z"/><path class="cls-1" d="M388.37,285.47h-1.92v3.94h-2.59v-3.94h-6.75V283.6l6-9.46h3.29v9.19h1.92Zm-4.51-2.14v-3.46c0-.89.07-2.28.12-3.17h-.1c-.38.79-.82,1.56-1.25,2.38l-2.78,4.25Z"/><path class="cls-1" d="M391.24,285.81a5.12,5.12,0,0,0,3.58,1.63,2.76,2.76,0,0,0,3-2.93,2.62,2.62,0,0,0-2.81-2.86,3.91,3.91,0,0,0-2.45.86l-1.32-.84.46-7.54h8.16v2.33H394l-.31,3.7a4.33,4.33,0,0,1,2-.5c2.62,0,4.8,1.49,4.8,4.78a5.15,5.15,0,0,1-5.38,5.26,7,7,0,0,1-5.21-2.11Z"/><path class="cls-1" d="M406.77,281.32l-4.18-7.61h3.1l1.75,3.48c.36.72.7,1.46,1.18,2.4h.1c.38-.94.72-1.68,1.06-2.4l1.66-3.48h3l-4.18,7.73,4.46,8h-3.1l-1.92-3.7c-.41-.82-.79-1.61-1.25-2.57h-.1c-.41,1-.79,1.75-1.18,2.57l-1.85,3.7h-3Z"/><path class="cls-1" d="M421,283.58l-4.73-9.86h3l1.7,4c.46,1.18.91,2.26,1.39,3.46h.1c.5-1.2,1-2.28,1.46-3.46l1.7-4h2.9l-4.73,9.86v5.83H421Z"/><path class="cls-1" d="M430.15,287.73l7.61-11.67h-6.89v-2.35h10.32v1.68l-7.58,11.67h7.66v2.35H430.15Z"/><path class="cls-1" d="M444.41,273.71h9.48v2.35h-6.7v4.44h5.69v2.35H447.2v6.55h-2.78Z"/><path class="cls-1" d="M457.23,285.76a5,5,0,0,0,3.62,1.68c1.66,0,2.81-.86,2.81-2.3s-1-2.59-4.49-2.59v-2c3,0,4-1,4-2.45a2,2,0,0,0-2.26-2,4.46,4.46,0,0,0-3.07,1.44l-1.42-1.7a6.74,6.74,0,0,1,4.58-1.92c2.93,0,4.95,1.44,4.95,4a3.67,3.67,0,0,1-2.67,3.5v.1a3.88,3.88,0,0,1,3.17,3.79c0,2.79-2.42,4.42-5.35,4.42a6.64,6.64,0,0,1-5.18-2.16Z"/><path class="cls-1" d="M470.64,286.29a3.35,3.35,0,0,0,2.45,1.15c1.92,0,3.48-1.42,3.6-5.64a4.61,4.61,0,0,1-3.34,1.78c-2.62,0-4.44-1.54-4.44-4.73a4.74,4.74,0,0,1,4.8-5c3,0,5.52,2.3,5.52,7.44,0,5.93-2.86,8.4-6,8.4a5.48,5.48,0,0,1-4.08-1.73Zm6-6.48c-.29-2.69-1.39-3.84-2.88-3.84-1.25,0-2.28,1-2.28,2.88s.89,2.74,2.42,2.74A3.42,3.42,0,0,0,476.62,279.81Z"/><path class="cls-1" d="M482.84,273.71H487c4.8,0,7.66,2.59,7.66,7.78s-2.86,7.92-7.51,7.92h-4.32Zm4,13.44c3.17,0,5-1.8,5-5.67s-1.82-5.52-5-5.52h-1.2v11.19Z"/><path class="cls-1" d="M496.76,287.8c4.25-4.1,6.91-6.79,6.91-9.12a2.37,2.37,0,0,0-2.52-2.64,4.22,4.22,0,0,0-3,1.7l-1.54-1.54a6.25,6.25,0,0,1,4.87-2.35,4.46,4.46,0,0,1,4.83,4.68c0,2.71-2.52,5.5-5.54,8.69.79-.07,1.8-.17,2.54-.17h3.75v2.35H496.76Z"/><path class="cls-1" d="M510.39,273.71h2.78v7.13h.07l5.59-7.13h3.07l-4.82,6.12,5.64,9.58h-3.07L515.43,282l-2.26,2.81v4.58h-2.78Z"/><path class="cls-1" d="M525.91,285.5a6.25,6.25,0,0,0,4.1,1.78c1.75,0,2.74-.79,2.74-2s-1-1.7-2.45-2.3l-2.14-.94a4.49,4.49,0,0,1-3.17-4.18c0-2.5,2.21-4.42,5.26-4.42a6.94,6.94,0,0,1,4.85,2l-1.44,1.78a5.07,5.07,0,0,0-3.41-1.34c-1.49,0-2.45.7-2.45,1.85s1.2,1.68,2.5,2.21l2.11.89c1.87.79,3.17,2,3.17,4.25,0,2.54-2.11,4.66-5.64,4.66a8.07,8.07,0,0,1-5.64-2.3Z"/><path class="cls-1" d="M540.61,286a1.87,1.87,0,0,1,0,3.74,1.87,1.87,0,0,1,0-3.74Zm8,0a1.87,1.87,0,0,1,0,3.74,1.87,1.87,0,0,1,0-3.74Zm8,0a1.87,1.87,0,1,1-1.78,1.87A1.78,1.78,0,0,1,556.6,286Z"/><path class="cls-2" d="M200.57,304.44h-3c0-19,16.49-64.89,54.61-84.55,14.81-7.64,31.15-10.31,48.57-7.92,20,2.74,41.54,12.2,63.94,28.13L363,242.54c-22-15.65-43.06-24.93-62.61-27.6-16.8-2.29-32.54.27-46.78,7.62C216.57,241.64,200.57,286,200.57,304.44Z"/><path class="cls-2" d="M524.35,343.47c-21.17,0-44.43-8.27-65.72-24.1l1.79-2.41c31.65,23.53,67.62,30,93.87,16.76,24.2-12.16,37.52-39.12,37.52-75.91h3c0,38-13.91,65.89-39.17,78.59A69.22,69.22,0,0,1,524.35,343.47Z"/><path class="cls-3" d="M158.31,471.69,82.17,428V340.53l76.14-43.72,76.14,43.72V428ZM85.17,426.24l73.14,42,73.14-42v-84l-73.14-42-73.14,42Z"/><path class="cls-4" d="M746.24,166l-32.47-18.77a3,3,0,0,0-3,0L678.26,166a3,3,0,0,0-1.52,2.64v37.54a3,3,0,0,0,1.52,2.64l32.47,18.77a3,3,0,0,0,3,0l32.47-18.77a3,3,0,0,0,1.52-2.64V168.61A3,3,0,0,0,746.24,166Zm-52.79,14.17v-5.82a3,3,0,1,1,6.09,0v5.82a3,3,0,1,1-6.09,0Zm36,15.85a24.06,24.06,0,0,1-34,0,3,3,0,1,1,4.3-4.3,18,18,0,0,0,25.43,0,3,3,0,0,1,4.3,4.3Zm1.92-15.85a3,3,0,1,1-6.09,0v-5.82a3,3,0,1,1,6.09,0Z"/><path class="cls-3" d="M708.91,68.16l-41-23.68a3.84,3.84,0,0,0-3.84,0l-41,23.68a3.84,3.84,0,0,0-1.92,3.33v47.37a3.84,3.84,0,0,0,1.92,3.33l41,23.68a3.84,3.84,0,0,0,3.84,0l41-23.68a3.84,3.84,0,0,0,1.92-3.33V71.49A3.84,3.84,0,0,0,708.91,68.16ZM642.31,86V78.7a3.84,3.84,0,0,1,7.68,0V86a3.84,3.84,0,0,1-7.68,0Zm45.37,20a30.36,30.36,0,0,1-43,0,3.84,3.84,0,1,1,5.43-5.43,22.68,22.68,0,0,0,32.09,0,3.84,3.84,0,0,1,5.43,5.43Zm2.42-20a3.84,3.84,0,0,1-7.68,0V78.7a3.84,3.84,0,0,1,7.68,0Z"/><path class="cls-1" d="M652,160.81l-45.94-26.56a4.31,4.31,0,0,0-4.31,0l-45.94,26.56a4.31,4.31,0,0,0-2.15,3.73v53.12a4.31,4.31,0,0,0,2.15,3.73L601.74,248a4.31,4.31,0,0,0,4.31,0L652,221.39a4.31,4.31,0,0,0,2.15-3.73V164.54A4.31,4.31,0,0,0,652,160.81Zm-74.7,20.05v-8.24a4.31,4.31,0,0,1,8.61,0v8.24a4.31,4.31,0,0,1-8.61,0Zm50.89,22.43a34,34,0,0,1-48.17,0,4.31,4.31,0,1,1,6.09-6.09,25.43,25.43,0,0,0,36,0,4.31,4.31,0,1,1,6.09,6.09Zm2.71-22.43a4.31,4.31,0,0,1-8.61,0v-8.24a4.31,4.31,0,0,1,8.61,0Z"/><path class="cls-1" d="M302.39,283.23h-9.3a1.74,1.74,0,1,1,0-3.49h9.3a1.74,1.74,0,1,1,0,3.49Z"/><path class="cls-1" d="M296,286.57h-5.52a5.09,5.09,0,0,1,0-10.17H296v-2.91h-5.52a8,8,0,0,0,0,16H296Z"/><path class="cls-1" d="M305,273.49h-5.52v2.91H305a5.09,5.09,0,1,1,0,10.17h-5.52v2.91H305a8,8,0,1,0,0-16Z"/></svg>