<svg id="logo-dat-desktop" xmlns="http://www.w3.org/2000/svg" viewBox="0 0 800 560"><defs><style>.cls-1{fill:#35b44f;}.cls-2{fill:#06c;}.cls-3{fill:#fff;}.cls-4{fill:#1c2128;}</style></defs><title>intro-4</title><path class="cls-1" d="M637.17,268,561,224.24V136.8l76.14-43.72,76.14,43.72v87.44ZM564,222.51l73.14,42,73.14-42v-84l-73.14-42-73.14,42Z"/><polygon class="cls-1" points="236.54 426.45 88.37 426.45 88.37 300.56 150.83 300.56 150.83 320.63 238.04 320.63 238.04 330.25 235.04 330.25 235.04 323.63 147.83 323.63 147.83 303.56 91.37 303.56 91.37 423.45 236.54 423.45 236.54 426.45"/><path class="cls-1" d="M237.84,426.69H88.14L102.43,329H252.13Zm-146.23-3H235.25L248.66,332H105Z"/><rect class="cls-2" x="293.1" y="257.82" width="231.31" height="46.62"/><path class="cls-3" d="M350.6,273.42a6.14,6.14,0,0,1,4.46,2l-1.54,1.73a4,4,0,0,0-2.9-1.3c-2.57,0-4.42,2.16-4.42,5.69s1.7,5.74,4.32,5.74a4.25,4.25,0,0,0,3.31-1.56l1.54,1.7a6.27,6.27,0,0,1-4.9,2.28c-4,0-7.13-2.88-7.13-8.09S346.56,273.42,350.6,273.42Z"/><path class="cls-3" d="M358.11,277.62h2.28l.19,2.09h.1a4,4,0,0,1,3.34-2.38,3,3,0,0,1,1.34.24l-.48,2.4a3.85,3.85,0,0,0-1.22-.19c-.94,0-2.06.65-2.78,2.42v7.2h-2.76Z"/><path class="cls-3" d="M372.14,277.34c3.19,0,4.87,2.3,4.87,5.59a5.92,5.92,0,0,1-.12,1.3H369.4a3.38,3.38,0,0,0,3.48,3.34,4.92,4.92,0,0,0,2.74-.86l.94,1.73a7.44,7.44,0,0,1-4,1.27c-3.26,0-5.81-2.28-5.81-6.17S369.38,277.34,372.14,277.34Zm2.47,5.14c0-1.87-.79-3-2.4-3-1.39,0-2.59,1-2.83,3Z"/><path class="cls-3" d="M386.39,281.87c0-1.25-.55-2.3-2.14-2.3a6.55,6.55,0,0,0-3.31,1.15l-1-1.85a9.13,9.13,0,0,1,4.82-1.54c3,0,4.39,1.8,4.39,5.09v7H386.9l-.22-1.3h-.07A5.74,5.74,0,0,1,383,289.7a3.31,3.31,0,0,1-3.5-3.46C379.46,283.72,381.57,282.4,386.39,281.87Zm-2.57,5.67a3.7,3.7,0,0,0,2.57-1.3V283.6c-3.19.41-4.25,1.25-4.25,2.42S382.84,287.54,383.83,287.54Z"/><path class="cls-3" d="M393.21,279.81h-1.68v-2.06l1.82-.12.34-3.22H396v3.22h3v2.18h-3v5.62c0,1.39.53,2.06,1.66,2.06a3.36,3.36,0,0,0,1.22-.26l.48,2a7.53,7.53,0,0,1-2.4.43c-2.74,0-3.74-1.73-3.74-4.27Z"/><path class="cls-3" d="M406.33,277.34c3.19,0,4.87,2.3,4.87,5.59a5.92,5.92,0,0,1-.12,1.3H403.6a3.38,3.38,0,0,0,3.48,3.34,4.92,4.92,0,0,0,2.74-.86l.94,1.73a7.44,7.44,0,0,1-4,1.27c-3.26,0-5.81-2.28-5.81-6.17S403.57,277.34,406.33,277.34Zm2.47,5.14c0-1.87-.79-3-2.4-3-1.39,0-2.59,1-2.83,3Z"/><path class="cls-3" d="M420.18,273.71H423l4.87,8.83,1.63,3.34h.1c-.14-1.61-.36-3.6-.36-5.35v-6.82h2.64v15.7h-2.86l-4.87-8.83-1.63-3.34h-.1c.14,1.66.36,3.55.36,5.3v6.87h-2.64Z"/><path class="cls-3" d="M440.78,277.34c3.19,0,4.87,2.3,4.87,5.59a5.92,5.92,0,0,1-.12,1.3H438a3.38,3.38,0,0,0,3.48,3.34,4.92,4.92,0,0,0,2.74-.86l.94,1.73a7.44,7.44,0,0,1-4,1.27c-3.26,0-5.81-2.28-5.81-6.17S438,277.34,440.78,277.34Zm2.47,5.14c0-1.87-.79-3-2.4-3-1.39,0-2.59,1-2.83,3Z"/><path class="cls-3" d="M447.43,277.62h2.78l1.42,6.12c.24,1.13.41,2.23.62,3.38h.1c.22-1.15.46-2.28.74-3.38l1.54-6.12h2.52l1.56,6.12c.29,1.13.53,2.23.79,3.38h.1c.22-1.15.41-2.26.62-3.38l1.42-6.12h2.59l-3,11.79h-3.29l-1.37-5.5c-.26-1.1-.46-2.18-.72-3.43h-.1c-.22,1.25-.43,2.35-.7,3.46l-1.34,5.47h-3.17Z"/><path class="cls-3" d="M472.89,273.71h4.18c4.8,0,7.66,2.59,7.66,7.78s-2.86,7.92-7.51,7.92h-4.32Zm4,13.44c3.17,0,5-1.8,5-5.67s-1.82-5.52-5-5.52h-1.2v11.19Z"/><path class="cls-3" d="M494.3,281.87c0-1.25-.55-2.3-2.14-2.3a6.55,6.55,0,0,0-3.31,1.15l-1-1.85a9.13,9.13,0,0,1,4.82-1.54c3,0,4.39,1.8,4.39,5.09v7h-2.26l-.22-1.3h-.07a5.74,5.74,0,0,1-3.65,1.58,3.31,3.31,0,0,1-3.5-3.46C487.37,283.72,489.48,282.4,494.3,281.87Zm-2.57,5.67a3.7,3.7,0,0,0,2.57-1.3V283.6c-3.19.41-4.25,1.25-4.25,2.42S490.75,287.54,491.74,287.54Z"/><path class="cls-3" d="M501.13,279.81h-1.68v-2.06l1.82-.12.34-3.22h2.3v3.22h3v2.18h-3v5.62c0,1.39.53,2.06,1.66,2.06a3.36,3.36,0,0,0,1.22-.26l.48,2a7.53,7.53,0,0,1-2.4.43c-2.74,0-3.74-1.73-3.74-4.27Z"/><path class="cls-3" d="M326.17,284.19h0a1.11,1.11,0,0,0-1.11,1.11v1.23l-9.37,5.41-9.36-5.4v-10.8l9.37-5.41,1.07.62a1.11,1.11,0,1,0,1.11-1.92l-1.62-.94a1.11,1.11,0,0,0-1.11,0l-10.48,6a1.11,1.11,0,0,0-.55,1v12.09a1.11,1.11,0,0,0,.56,1l10.47,6a1.11,1.11,0,0,0,1.11,0l10.48-6a1.11,1.11,0,0,0,.55-1V285.3A1.11,1.11,0,0,0,326.17,284.19Z"/><path class="cls-3" d="M327.19,274.82h-2.89v-2.89a1.78,1.78,0,0,0-3.55,0v2.89h-2.89a1.78,1.78,0,1,0,0,3.55h2.89v2.89a1.78,1.78,0,1,0,3.55,0v-2.89h2.89a1.78,1.78,0,1,0,0-3.55Z"/><path class="cls-4" d="M199.21,304.44h-3c0-19,16.49-64.88,54.61-84.55,14.81-7.64,31.15-10.3,48.57-7.92,20,2.74,41.54,12.2,63.94,28.13l-1.74,2.45c-22-15.65-43.06-24.93-62.61-27.6-16.8-2.3-32.54.27-46.78,7.62C215.21,241.64,199.21,286,199.21,304.44Z"/><path class="cls-4" d="M523,343.47c-21.17,0-44.43-8.27-65.73-24.1l1.79-2.41c31.66,23.53,67.62,30,93.87,16.76,24.2-12.16,37.52-39.12,37.52-75.91h3c0,38-13.91,65.89-39.17,78.59A69.22,69.22,0,0,1,523,343.47Z"/></svg>