<svg id="logo-dat-desktop" xmlns="http://www.w3.org/2000/svg" width="212" height="244" viewBox="0 0 212 244"><defs><style>.cls-1{fill:none;stroke:#35b44f;stroke-miterlimit:10;stroke-width:3px;}.cls-2{fill:#fff;}</style></defs><title>logo-dat-desktop</title><polygon class="cls-1" points="210.5 182 106 242 1.5 182 1.5 62 106 2 210.5 62 210.5 182"/><path class="cls-2" d="M57.87,86.27h11c12.66,0,20.19,6.83,20.19,20.5s-7.53,20.88-19.81,20.88H57.87Zm10.5,35.44c8.35,0,13.16-4.75,13.16-14.93S76.72,92.22,68.37,92.22H65.21v29.49Z"/><path class="cls-2" d="M116.93,116.46H103.08l-3.23,11.2H92.32l13.54-41.39h8.61l13.48,41.39h-7.78Zm-1.65-5.76-1.46-5.06c-1.27-4.37-2.53-9.11-3.73-13.67h-.25c-1.14,4.62-2.34,9.3-3.67,13.67l-1.46,5.06Z"/><path class="cls-2" d="M139,92.48h-12v-6.2h31.2v6.2h-11.9v35.18H139Z"/><path class="cls-2" d="M39,148.88H44c5.66,0,9,3.06,9,9.17s-3.37,9.34-8.86,9.34H39Zm4.7,15.85c3.74,0,5.89-2.12,5.89-6.68s-2.15-6.51-5.89-6.51H42.33v13.19Z"/><path class="cls-2" d="M60.82,148.88H71.94v2.77H64.1v4.73h6.65v2.77H64.1v5.46h8.12v2.77H60.82Z"/><path class="cls-2" d="M80.88,162.78a7.37,7.37,0,0,0,4.84,2.09c2.07,0,3.23-.93,3.23-2.38s-1.19-2-2.89-2.72l-2.52-1.1c-1.84-.76-3.74-2.21-3.74-4.93,0-2.94,2.61-5.21,6.2-5.21a8.19,8.19,0,0,1,5.72,2.35L90,153a6,6,0,0,0-4-1.58c-1.76,0-2.89.82-2.89,2.18s1.41,2,2.94,2.6l2.49,1c2.21.93,3.74,2.32,3.74,5,0,3-2.49,5.49-6.65,5.49A9.52,9.52,0,0,1,79,165Z"/><path class="cls-2" d="M99.8,148.88h3.28v8.41h.08l6.6-8.41h3.62l-5.69,7.22,6.65,11.29h-3.62l-5-8.72L103.08,162v5.41H99.8Z"/><path class="cls-2" d="M125.1,151.66h-5.35v-2.77h14v2.77h-5.32v15.74H125.1Z"/><path class="cls-2" d="M139.52,158.05c0-6,3.34-9.51,8.18-9.51s8.15,3.54,8.15,9.51-3.34,9.68-8.15,9.68S139.52,164.05,139.52,158.05Zm13,0c0-4.13-1.9-6.65-4.78-6.65s-4.81,2.52-4.81,6.65,1.9,6.82,4.81,6.82S152.49,162.21,152.49,158.05Z"/><path class="cls-2" d="M163.71,148.88h6.23c4,0,7,1.42,7,5.72,0,4.1-3.06,6-7,6H167v6.79h-3.28Zm5.94,9.09c2.77,0,4.08-1.1,4.08-3.37s-1.39-3.09-4.08-3.09H167V158Z"/></svg>