<svg xmlns="http://www.w3.org/2000/svg" viewBox="0 0 240 240"><title>clipboard</title><path d="M142.48 64c4.42 0 7.52-3.58 7.52-8s-3.1-8-7.52-8h-56a8 8 0 1 0 0 16z"/><path d="M214 130.9l-17-9.9V34a18.06 18.06 0 0 0-18-18H50a18 18 0 0 0-18 18v152a18 18 0 0 0 18 18h49.12a8 8 0 0 0 1.88 1.52l52.5 30.39a8 8 0 0 0 8 0l52.5-30.39a8 8 0 0 0 4-6.92v-60.78a8 8 0 0 0-4-6.92zM48 186V34a2 2 0 0 1 2-2h129a2.06 2.06 0 0 1 2 2v77.77l-19.47-11.26a8 8 0 0 0-8 0L101 130.9a8 8 0 0 0-4 6.92V188H50a2 2 0 0 1-2-2z"/></svg>