<svg xmlns="http://www.w3.org/2000/svg" viewBox="0 0 240 240" width="20px"><title>Create New Dat</title><path fill="#FFF" d="M214.37 148a9.79 9.79 0 0 0-10 9.74v11L120 217.41l-84.36-48.65.06-97.35 84.4-48.74 9.63 5.55a10 10 0 0 0 10-17.33l-14.65-8.44a10 10 0 0 0-10 0L20.7 57a10 10 0 0 0-5 8.65l-.06 108.89a10 10 0 0 0 5 8.67L115 237.55a10 10 0 0 0 10 0L219.36 183a10 10 0 0 0 5-8.65v-16.59a9.79 9.79 0 0 0-9.99-9.76z"/><path fill="#FFF" d="M223.63 63H198V37.11a16 16 0 0 0-32 0V63h-26.37a16 16 0 0 0 0 32H166v26.11a16 16 0 1 0 32 0V95h25.63a16 16 0 0 0 0-32z"/></svg>
