<?xml version="1.0" encoding="utf-8"?>
<svg version="1.1" id="dat-data-logo" xmlns="http://www.w3.org/2000/svg" xmlns:xlink="http://www.w3.org/1999/xlink" x="0px" y="0px"
   width="240px" height="240px" viewBox="0 0 240 240" enable-background="new 0 0 240 240" xml:space="preserve">
  <polygon fill="#35B44F" points="224,179.5 119.5,239.5 15,179.5 15,59.5 119.5,-0.5 224,59.5 "/>
  <g>
    <path fill="#FFFFFF" d="M74.707,76.498c4.863,0,7.782,1.768,10.789,4.598l-0.53-6.721V59.43h13v61.992H87.353l-0.884-4.333h-0.354
      c-3.095,3.095-7.429,5.394-11.673,5.394c-10.877,0-17.952-8.666-17.952-22.993C56.49,85.164,65.421,76.498,74.707,76.498z
       M77.801,111.872c2.831,0,5.041-1.061,7.164-3.98V89.94c-2.299-2.122-4.864-2.83-7.252-2.83c-4.156,0-7.87,3.891-7.87,12.204
      C69.843,107.98,72.761,111.872,77.801,111.872z"/>
    <path fill="#FFFFFF" d="M131.303,93.212c-0.265-3.891-2.21-6.367-6.898-6.367c-3.713,0-7.429,1.503-11.673,3.979l-4.599-8.578
      c5.571-3.36,11.85-5.748,18.747-5.748c11.232,0,17.422,6.367,17.422,19.809v25.115h-10.613l-0.972-4.51h-0.265
      c-3.713,3.272-7.87,5.571-12.823,5.571c-7.96,0-13-5.837-13-13.265C106.63,100.021,113.97,94.98,131.303,93.212z M124.052,112.402
      c3.007,0,4.953-1.415,7.251-3.714v-7.694c-9.285,1.238-12.292,3.891-12.292,7.251C119.011,111.075,120.957,112.402,124.052,112.402
      z"/>
    <path fill="#FFFFFF" d="M157.214,87.729h-6.013v-9.64l6.72-0.531l1.503-11.673h10.79v11.673h10.523v10.17h-10.523v17.598
      c0,4.952,2.21,6.986,5.66,6.986c1.414,0,3.007-0.442,4.156-0.884l2.033,9.462c-2.298,0.707-5.482,1.592-9.727,1.592
      c-10.878,0-15.123-6.809-15.123-16.979V87.729z"/>
  </g>
  <g>
    <path fill="#FFFFFF" d="M63.75,136.841h8.962c11.969,0,17.688,7.547,17.688,19.28c0,11.792-5.719,19.575-17.629,19.575H63.75
      V136.841z M72.417,173.396c10.554,0,15.152-7.134,15.152-17.276c0-10.082-4.598-16.981-15.152-16.981h-5.955v34.256H72.417z"/>
    <path fill="#FFFFFF" d="M116.516,162.371h-15.388l-4.54,13.325h-2.772l13.738-38.855h2.712l13.679,38.855h-2.888L116.516,162.371z
       M115.75,160.071l-2.476-7.252c-1.533-4.599-2.948-8.667-4.304-13.443h-0.236c-1.355,4.776-2.712,8.844-4.304,13.443l-2.476,7.252
      H115.75z"/>
    <path fill="#FFFFFF" d="M135.44,139.199h-12.382v-2.359h27.416v2.359h-12.322v36.496h-2.712V139.199z"/>
    <path fill="#FFFFFF" d="M172.287,162.371h-15.388l-4.54,13.325h-2.772l13.738-38.855h2.712l13.678,38.855h-2.888L172.287,162.371z
       M171.521,160.071l-2.477-7.252c-1.532-4.599-2.947-8.667-4.304-13.443h-0.235c-1.356,4.776-2.712,8.844-4.305,13.443l-2.476,7.252
      H171.521z"/>
  </g>
</svg>
