<svg xmlns="http://www.w3.org/2000/svg" viewBox="0 0 240 240"><title>Download</title><path d="M215 196.73a11 11 0 0 1-11 11H36a11 11 0 0 1-11-11v-36.54a11 11 0 0 1 11-11h53.1l15.41 15.53a22 22 0 0 0 31.06 0l15.53-15.53h53a11 11 0 0 1 11 11zm-38.71-93.51l-51.15 51.15a7.17 7.17 0 0 1-10.28 0l-51.15-51.15a7.19 7.19 0 0 1-1.6-8 7.4 7.4 0 0 1 6.74-4.45h29.23V39.62a7.36 7.36 0 0 1 7.31-7.31h29.23a7.36 7.36 0 0 1 7.31 7.31v51.15h29.23a7.4 7.4 0 0 1 6.74 4.45 7.19 7.19 0 0 1-1.61 8zm16.78 75.25a7.31 7.31 0 1 0 7.31 7.31 7.36 7.36 0 0 0-7.3-7.32z"/></svg>
