<svg xmlns="http://www.w3.org/2000/svg" viewBox="0 0 240 240"><title>edit-dat</title><path d="M214.37 122a9.79 9.79 0 0 0-10 9.75v37L120 217.41l-84.36-48.66.06-97.35 84.4-48.74 9.63 5.55a10 10 0 0 0 10-17.33l-14.65-8.43a10 10 0 0 0-10 0L20.7 57a10 10 0 0 0-5 8.65l-.06 108.89a10 10 0 0 0 5 8.67L115 237.55a10 10 0 0 0 10 0L219.36 183a10 10 0 0 0 5-8.66v-42.59a9.79 9.79 0 0 0-9.99-9.75z"/><path d="M235.51 45.62l-31.4-31.4a5.89 5.89 0 0 0-8.39 0L87 123v40h39.7L235.51 54.14a6 6 0 0 0 0-8.52zM121 149.63h-8V136h-13v-7.42l16.12-16.06 21 21.05zm81-115.14L133.48 103q-2.35 2.36-4.57.14t.14-4.57l68.47-68.47q2.35-2.36 4.57-.14c1.48 1.43 1.42 2.96-.14 4.53z"/></svg>