<svg xmlns="http://www.w3.org/2000/svg" viewBox="0 0 240 240"><title>file</title><path d="M159.55 157h-64a6 6 0 1 0 0 12h64c3.31 0 6.45-2.69 6.45-6 0-3.32-3.14-6-6.45-6zm0-22h-64a6 6 0 1 0 0 12h64c3.31 0 6.45-2.69 6.45-6 0-3.32-3.14-6-6.45-6zm0-22h-64a6 6 0 1 0 0 12h64c3.31 0 6.45-2.69 6.45-6 0-3.32-3.14-6-6.45-6z"/><path d="M207.06 88.45a7 7 0 0 0-.06-.87V86a8 8 0 0 0-2.31-5.63l-55.39-56a8 8 0 0 0-5.69-2.37H63.07C50.27 22 42 27.89 42 37v152c0 9.81 11.22 21 21.07 21H192c6.91 0 15-5.5 15-21V89.32a7 7 0 0 0 .06-.87zM183.25 81H148V46.31zm7.12 113H63.21c-1.65-.37-4.82-3.5-5.21-5.15V38.66a17.43 17.43 0 0 1 5.07-.66H134v50.45c0 3.87 3.62 6.55 7.49 6.55H191v94a17.43 17.43 0 0 1-.63 5z"/></svg>