<svg xmlns="http://www.w3.org/2000/svg" viewBox="0 0 240 240"><title>happy dat</title><path d="M120 240a9 9 0 0 1-4.5-1.21l-96-55.5a9 9 0 0 1-4.5-7.79v-111a9 9 0 0 1 4.5-7.79l96-55.5a9 9 0 0 1 9 0l96 55.5a9 9 0 0 1 4.5 7.79v111a9 9 0 0 1-4.5 7.79l-96 55.5A9 9 0 0 1 120 240zm-87-69.69l87 50.3 87-50.3V69.69L120 19.4 33 69.69z"/><path d="M120.43 166.34a70.72 70.72 0 0 1-50.33-20.86 9 9 0 0 1 12.73-12.73 53.14 53.14 0 0 0 75.2 0 9 9 0 0 1 12.73 12.73 70.72 70.72 0 0 1-50.33 20.86zM73.43 107.61a9 9 0 0 1-9-9V81.39a9 9 0 0 1 18 0v17.22a9 9 0 0 1-9 9zM167.43 107.61a9 9 0 0 1-9-9V81.39a9 9 0 0 1 18 0v17.22a9 9 0 0 1-9 9z"/></svg>