<svg xmlns="http://www.w3.org/2000/svg" viewBox="0 0 240 240"><title>import-dat</title><path d="M86.1 147.1a14 14 0 1 0 19.8 19.8l36.94-36.9.07-.06c.2-.2.38-.41.56-.62s.24-.25.35-.39.36-.48.54-.72.19-.25.28-.38.31-.5.46-.76.17-.28.25-.42.24-.5.36-.75.16-.33.23-.49.18-.48.27-.73.14-.38.2-.57.13-.49.19-.73.11-.4.15-.6.09-.56.13-.84.06-.35.08-.52c0-.46.07-.93.07-1.39s0-.93-.07-1.39c0-.18-.05-.35-.08-.52s-.07-.56-.13-.84-.1-.4-.15-.6-.11-.49-.19-.73-.13-.38-.2-.57-.17-.49-.27-.73-.15-.33-.23-.5-.23-.5-.36-.75-.17-.28-.25-.42-.29-.51-.46-.75-.19-.26-.29-.39-.34-.48-.53-.71-.27-.29-.4-.44-.33-.39-.52-.57l-.07-.06L105.9 73.1a14 14 0 1 0-19.8 19.8L99.2 106H14a14 14 0 0 0 0 28h85.2z"/><path d="M234.66 115l-55.5-96a10 10 0 0 0-8.66-5h-111a10 10 0 0 0-8.66 5l-8.61 14.89a10 10 0 1 0 17.31 10L65.27 34h99.46l49.72 86-49.72 86H65.27l-5.72-9.9a10 10 0 1 0-17.31 10l8.6 14.9a10 10 0 0 0 8.66 5h111a10 10 0 0 0 8.66-5l55.5-96a10 10 0 0 0 0-10z"/></svg>