<svg xmlns="http://www.w3.org/2000/svg" viewBox="0 0 240 240"><title>loading</title><path d="M189.61 133h-18.8a2.83 2.83 0 0 0-2.94 2c-1.67 3.92-2.84 7.52-5.19 11.34a49.94 49.94 0 0 1-76.76 10.29l13.41-13.43a5.73 5.73 0 0 0 1.87-4.2 6.12 6.12 0 0 0-6.27-6H51.07a5.76 5.76 0 0 0-6.07 5.8v43.86a6.23 6.23 0 0 0 6.17 6.27 6.12 6.12 0 0 0 4.36-1.86l12.6-12.63a75 75 0 0 0 51.49 20.76c36.13 0 64.71-24.18 73-58.84a.76.76 0 0 0 .09-.45 3 3 0 0 0-3.1-2.91zm-.78-81.93a6.13 6.13 0 0 0-4.36 1.86l-12.7 12.63a75.47 75.47 0 0 0-51.57-20.75c-36.13 0-65.2 24.08-73.2 58.84v.69a2.44 2.44 0 0 0 2.7 2.66h19.49a2.83 2.83 0 0 0 2.94-2c1.67-3.92 2.84-7.52 5.19-11.34a50.15 50.15 0 0 1 76.86-10.39l-13.52 13.51a5.73 5.73 0 0 0-1.86 4.22 6.12 6.12 0 0 0 6.27 6h43.86a5.76 5.76 0 0 0 6.07-5.8V57.34a6.23 6.23 0 0 0-6.17-6.27z"/></svg>