<svg xmlns="http://www.w3.org/2000/svg" viewBox="0 0 240 240"><title>question</title><path d="M221 56.71l-96-55.5a9 9 0 0 0-9 0l-96 55.5a9 9 0 0 0-4.5 7.79v111a9 9 0 0 0 4.5 7.79l96 55.5a9 9 0 0 0 9 0l96-55.5a9 9 0 0 0 4.5-7.79v-111a9 9 0 0 0-4.5-7.79zM117.44 188.24c-10 0-17.31-7.87-17.31-18.09 0-10.42 7.28-18.29 17.31-18.29s17.5 7.87 17.5 18.29c.01 10.23-7.47 18.09-17.5 18.09zM130.23 140h-25.37c-3.93-26 24.78-37.93 24.78-52.68 0-8.06-5.31-12.28-13.18-12.28-7.28 0-12.59 3.79-17.9 9.1L82.63 69.63c8.85-10.63 21.24-17.89 35.8-17.89 22.22 0 38.94 10.2 38.94 33.41 0 24.39-29.5 31.85-27.14 54.85z"/></svg>