<svg xmlns="http://www.w3.org/2000/svg" viewBox="0 0 240 240"><title>star-dat</title><path d="M238.34 56.07a10 10 0 0 0-8.07-6.81l-32.88-4.78-14.71-29.8a10 10 0 0 0-17.94 0L150 44.48l-32.88 4.78a10 10 0 0 0-5.54 17.06l23.79 23.19-5.62 32.75a10 10 0 0 0 14.51 10.54l29.41-15.46 29.41 15.46a10 10 0 0 0 14.51-10.54L212 89.51l23.79-23.19a10 10 0 0 0 2.55-10.25z"/><path d="M199.91 148a9.79 9.79 0 0 0-10 9.74v11l-84.4 48.67-84.34-48.66.06-97.35 84.4-48.74 9.63 5.55a10 10 0 0 0 10-17.33l-14.64-8.43a10 10 0 0 0-10 0L6.23 57a10 10 0 0 0-5 8.65l-.06 108.84a10 10 0 0 0 5 8.67l94.33 54.39a10 10 0 0 0 10 0L204.89 183a10 10 0 0 0 5-8.65v-16.59a9.79 9.79 0 0 0-9.98-9.76z"/></svg>