<svg id="Layer_1" data-name="Layer 1" xmlns="http://www.w3.org/2000/svg" viewBox="0 0 1875 661"><defs><style>.cls-1{fill:#e9ebec;}</style></defs><title>table-skeleton-2</title><polygon class="cls-1" points="97.21 242.11 97.21 221.32 79.21 210.93 61.21 221.32 61.21 242.11 79.21 252.5 97.21 242.11"/><rect class="cls-1" x="184.66" y="206.65" width="440" height="14"/><rect class="cls-1" x="754.66" y="226.65" width="319.67" height="14"/><rect class="cls-1" x="1092.34" y="226.65" width="62" height="14"/><rect class="cls-1" x="1265.34" y="226.65" width="62" height="14"/><rect class="cls-1" x="1475.34" y="226.65" width="62" height="14"/><rect class="cls-1" x="184.66" y="61.65" width="44.67" height="14"/><rect class="cls-1" x="754.66" y="61.65" width="110.67" height="14"/><rect class="cls-1" x="1685.34" y="226.65" width="31" height="14"/><rect class="cls-1" x="1745.34" y="226.65" width="31" height="14"/><rect class="cls-1" x="1805.34" y="226.65" width="31" height="14"/><rect class="cls-1" x="184.66" y="248.65" width="132.67" height="14"/><polygon class="cls-1" points="97.21 402.11 97.21 381.32 79.21 370.93 61.21 381.32 61.21 402.11 79.21 412.5 97.21 402.11"/><rect class="cls-1" x="184.66" y="366.65" width="440" height="14"/><rect class="cls-1" x="754.66" y="386.65" width="319.67" height="14"/><rect class="cls-1" x="1092.34" y="386.65" width="62" height="14"/><rect class="cls-1" x="1265.34" y="386.65" width="62" height="14"/><rect class="cls-1" x="1475.34" y="386.65" width="62" height="14"/><rect class="cls-1" x="1685.34" y="386.65" width="31" height="14"/><rect class="cls-1" x="1745.34" y="386.65" width="31" height="14"/><rect class="cls-1" x="1805.34" y="386.65" width="31" height="14"/><rect class="cls-1" x="184.66" y="408.65" width="132.67" height="14"/><polygon class="cls-1" points="97.21 562.11 97.21 541.32 79.21 530.93 61.21 541.32 61.21 562.11 79.21 572.5 97.21 562.11"/><rect class="cls-1" x="184.66" y="526.65" width="440" height="14"/><rect class="cls-1" x="754.66" y="546.65" width="319.67" height="14"/><rect class="cls-1" x="1092.34" y="546.65" width="62" height="14"/><rect class="cls-1" x="1265.34" y="546.65" width="62" height="14"/><rect class="cls-1" x="1475.34" y="546.65" width="62" height="14"/><rect class="cls-1" x="1685.34" y="546.65" width="31" height="14"/><rect class="cls-1" x="1745.34" y="546.65" width="31" height="14"/><rect class="cls-1" x="1805.34" y="546.65" width="31" height="14"/><rect class="cls-1" x="184.66" y="568.65" width="132.67" height="14"/></svg>